<?xml version="1.0" encoding="UTF-8"?>
<svg id="Layer_1" xmlns="http://www.w3.org/2000/svg" version="1.1" viewBox="0 0 122.88 101.37">
  <!-- Generator: Adobe Illustrator 30.1.0, SVG Export Plug-In . SVG Version: 2.1.1 Build 136)  -->
  <defs>
    <style>
      .st0 {
        fill: #6666ff;
      }
    </style>
  </defs>
  <path class="st0" d="M12.64,77.27l.31-54.92h-6.2v69.88c8.52-2.2,17.07-3.6,25.68-3.66,7.95-.05,15.9,1.06,23.87,3.76-4.95-4.01-10.47-6.96-16.36-8.88-7.42-2.42-15.44-3.22-23.66-2.52-1.86.15-3.48-1.23-3.64-3.08-.02-.2-.02-.39,0-.58h0ZM103.62,19.48c-.02-.16-.04-.33-.04-.51,0-.17.01-.34.04-.51V7.34c-7.8-.74-15.84.12-22.86,2.78-6.56,2.49-12.22,6.58-15.9,12.44v63.34c5.72-3.82,11.57-6.96,17.58-9.1,6.85-2.44,13.89-3.6,21.18-3.02V19.48h0ZM110.37,15.6h9.14c1.86,0,3.37,1.51,3.37,3.37v77.66c0,1.86-1.51,3.37-3.37,3.37-.38,0-.75-.06-1.09-.18-9.4-2.69-18.74-4.48-27.99-4.54-9.02-.06-18.03,1.53-27.08,5.52-.56.37-1.23.57-1.92.56-.68.01-1.35-.19-1.92-.56-9.04-4-18.06-5.58-27.08-5.52-9.25.06-18.58,1.85-27.99,4.54-.34.12-.71.18-1.09.18-1.84,0-3.35-1.5-3.35-3.36V18.97c0-1.86,1.51-3.37,3.37-3.37h9.61l.06-11.26c.01-1.62,1.15-2.96,2.68-3.28h0c8.87-1.85,19.65-1.39,29.1,2.23,6.53,2.5,12.46,6.49,16.79,12.25,4.37-5.37,10.21-9.23,16.78-11.72C87.37.41,97.73-.41,107.48,1.02c1.68.24,2.88,1.69,2.88,3.33h0v11.25h.01ZM68.13,91.82c7.45-2.34,14.89-3.3,22.33-3.26,8.61.05,17.16,1.46,25.68,3.66V22.35h-5.77v55.22c0,1.86-1.51,3.37-3.37,3.37-.27,0-.53-.03-.78-.09-7.38-1.16-14.53-.2-21.51,2.29-5.62,2.01-11.14,5.01-16.58,8.68h0ZM58.12,85.25V22.46c-3.53-6.23-9.24-10.4-15.69-12.87-7.31-2.8-15.52-3.43-22.68-2.41l-.38,66.81c7.81-.28,15.45.71,22.64,3.06,5.72,1.86,11.14,4.59,16.11,8.2h0Z"/>
</svg>
